<mxfile host="app.diagrams.net" modified="2023-06-01T02:31:41.449Z" agent="Mozilla/5.0 (Windows NT 10.0; Win64; x64) AppleWebKit/537.36 (KHTML, like Gecko) Chrome/113.0.0.0 Safari/537.36 Edg/113.0.1774.57" etag="11sPML2pSl85j-r0-RJ5" version="21.3.6" type="github">
  <diagram name="Page-1" id="5f0bae14-7c28-e335-631c-24af17079c00">
    <mxGraphModel dx="3858" dy="2378" grid="1" gridSize="10" guides="1" tooltips="1" connect="1" arrows="1" fold="1" page="1" pageScale="1" pageWidth="1100" pageHeight="850" background="none" math="0" shadow="0">
      <root>
        <mxCell id="0" />
        <mxCell id="1" parent="0" />
        <mxCell id="39150e848f15840c-1" value="交易所接口" style="verticalAlign=top;align=left;spacingTop=8;spacingLeft=2;spacingRight=12;shape=cube;size=10;direction=south;fontStyle=4;html=1;rounded=0;shadow=0;comic=0;labelBackgroundColor=none;strokeWidth=1;fontFamily=Verdana;fontSize=12;fillColor=#dae8fc;strokeColor=#6c8ebf;" parent="1" vertex="1">
          <mxGeometry x="120" y="70" width="390" height="170" as="geometry" />
        </mxCell>
        <mxCell id="39150e848f15840c-2" value="Match-Engine&lt;br&gt;" style="verticalAlign=top;align=left;spacingTop=8;spacingLeft=2;spacingRight=12;shape=cube;size=10;direction=south;fontStyle=4;html=1;rounded=0;shadow=0;comic=0;labelBackgroundColor=none;strokeWidth=1;fontFamily=Verdana;fontSize=12;fillColor=#d5e8d4;strokeColor=#82b366;" parent="1" vertex="1">
          <mxGeometry x="615" y="50" width="360" height="247.5" as="geometry" />
        </mxCell>
        <mxCell id="39150e848f15840c-3" value="OMS" style="verticalAlign=top;align=left;spacingTop=8;spacingLeft=2;spacingRight=12;shape=cube;size=10;direction=south;fontStyle=4;html=1;rounded=0;shadow=0;comic=0;labelBackgroundColor=none;strokeWidth=1;fontFamily=Verdana;fontSize=12;fillColor=#f8cecc;strokeColor=#b85450;" parent="1" vertex="1">
          <mxGeometry x="200" y="425" width="520" height="300" as="geometry" />
        </mxCell>
        <mxCell id="39150e848f15840c-5" value="报盘" style="shape=component;align=left;spacingLeft=36;rounded=0;shadow=0;comic=0;labelBackgroundColor=none;strokeWidth=1;fontFamily=Verdana;fontSize=12;html=1;" parent="1" vertex="1">
          <mxGeometry x="140" y="110" width="120" height="60" as="geometry" />
        </mxCell>
        <mxCell id="39150e848f15840c-6" value="" style="ellipse;whiteSpace=wrap;html=1;rounded=0;shadow=0;comic=0;labelBackgroundColor=none;strokeWidth=1;fontFamily=Verdana;fontSize=12;align=center;" parent="1" vertex="1">
          <mxGeometry x="180" y="195" width="20" height="20" as="geometry" />
        </mxCell>
        <mxCell id="T7iJ2CEk3YlCB5aOrDes-41" value="" style="edgeStyle=orthogonalEdgeStyle;rounded=0;orthogonalLoop=1;jettySize=auto;html=1;" edge="1" parent="1" source="39150e848f15840c-7" target="T7iJ2CEk3YlCB5aOrDes-39">
          <mxGeometry relative="1" as="geometry" />
        </mxCell>
        <mxCell id="T7iJ2CEk3YlCB5aOrDes-43" value="" style="edgeStyle=orthogonalEdgeStyle;rounded=0;orthogonalLoop=1;jettySize=auto;html=1;" edge="1" parent="1" source="39150e848f15840c-7" target="T7iJ2CEk3YlCB5aOrDes-42">
          <mxGeometry relative="1" as="geometry" />
        </mxCell>
        <mxCell id="39150e848f15840c-7" value="订单流生成" style="shape=component;align=left;spacingLeft=36;rounded=0;shadow=0;comic=0;labelBackgroundColor=none;strokeWidth=1;fontFamily=Verdana;fontSize=12;html=1;fillColor=#f8cecc;strokeColor=#b85450;" parent="1" vertex="1">
          <mxGeometry x="650" y="105" width="110" height="65" as="geometry" />
        </mxCell>
        <mxCell id="39150e848f15840c-10" value="订单管理服务" style="shape=component;align=left;spacingLeft=36;rounded=0;shadow=0;comic=0;labelBackgroundColor=none;strokeWidth=1;fontFamily=Verdana;fontSize=12;html=1;fillColor=#fff2cc;strokeColor=#d6b656;" parent="1" vertex="1">
          <mxGeometry x="270" y="480" width="120" height="60" as="geometry" />
        </mxCell>
        <mxCell id="39150e848f15840c-11" style="edgeStyle=none;rounded=0;html=1;dashed=1;labelBackgroundColor=none;startArrow=none;startFill=0;startSize=8;endArrow=open;endFill=0;endSize=16;fontFamily=Verdana;fontSize=12;" parent="1" source="39150e848f15840c-10" target="39150e848f15840c-6" edge="1">
          <mxGeometry relative="1" as="geometry" />
        </mxCell>
        <mxCell id="39150e848f15840c-14" style="edgeStyle=elbowEdgeStyle;rounded=0;html=1;labelBackgroundColor=none;startArrow=none;startFill=0;startSize=8;endArrow=none;endFill=0;endSize=16;fontFamily=Verdana;fontSize=12;" parent="1" source="39150e848f15840c-6" target="39150e848f15840c-5" edge="1">
          <mxGeometry relative="1" as="geometry" />
        </mxCell>
        <mxCell id="T7iJ2CEk3YlCB5aOrDes-14" value="" style="edgeStyle=orthogonalEdgeStyle;rounded=0;orthogonalLoop=1;jettySize=auto;html=1;" edge="1" parent="1">
          <mxGeometry relative="1" as="geometry">
            <mxPoint x="350" y="170" as="sourcePoint" />
            <mxPoint x="350" y="210" as="targetPoint" />
          </mxGeometry>
        </mxCell>
        <mxCell id="T7iJ2CEk3YlCB5aOrDes-1" value="行情发布" style="shape=component;align=left;spacingLeft=36;rounded=0;shadow=0;comic=0;labelBackgroundColor=none;strokeWidth=1;fontFamily=Verdana;fontSize=12;html=1;" vertex="1" parent="1">
          <mxGeometry x="290" y="110" width="120" height="60" as="geometry" />
        </mxCell>
        <mxCell id="T7iJ2CEk3YlCB5aOrDes-3" value="综合业务服务" style="shape=component;align=left;spacingLeft=36;rounded=0;shadow=0;comic=0;labelBackgroundColor=none;strokeWidth=1;fontFamily=Verdana;fontSize=12;html=1;" vertex="1" parent="1">
          <mxGeometry x="260" y="610" width="120" height="60" as="geometry" />
        </mxCell>
        <mxCell id="T7iJ2CEk3YlCB5aOrDes-4" value="算法交易服务" style="shape=component;align=left;spacingLeft=36;rounded=0;shadow=0;comic=0;labelBackgroundColor=none;strokeWidth=1;fontFamily=Verdana;fontSize=12;html=1;fillColor=#fff2cc;strokeColor=#d6b656;" vertex="1" parent="1">
          <mxGeometry x="450" y="480" width="120" height="60" as="geometry" />
        </mxCell>
        <mxCell id="T7iJ2CEk3YlCB5aOrDes-5" value="场内SBL" style="shape=component;align=left;spacingLeft=36;rounded=0;shadow=0;comic=0;labelBackgroundColor=none;strokeWidth=1;fontFamily=Verdana;fontSize=12;html=1;" vertex="1" parent="1">
          <mxGeometry x="450" y="610" width="120" height="60" as="geometry" />
        </mxCell>
        <mxCell id="T7iJ2CEk3YlCB5aOrDes-12" style="edgeStyle=none;rounded=0;html=1;dashed=1;labelBackgroundColor=none;startArrow=none;startFill=0;startSize=8;endArrow=open;endFill=0;endSize=16;fontFamily=Verdana;fontSize=12;" edge="1" parent="1" source="T7iJ2CEk3YlCB5aOrDes-4" target="39150e848f15840c-6">
          <mxGeometry relative="1" as="geometry">
            <mxPoint x="381" y="461" as="sourcePoint" />
            <mxPoint x="270" y="240" as="targetPoint" />
          </mxGeometry>
        </mxCell>
        <mxCell id="T7iJ2CEk3YlCB5aOrDes-60" style="edgeStyle=orthogonalEdgeStyle;rounded=0;orthogonalLoop=1;jettySize=auto;html=1;entryX=0;entryY=0;entryDx=0;entryDy=255;entryPerimeter=0;shape=arrow;exitX=1;exitY=1;exitDx=0;exitDy=0;" edge="1" parent="1" source="T7iJ2CEk3YlCB5aOrDes-18" target="39150e848f15840c-3">
          <mxGeometry relative="1" as="geometry" />
        </mxCell>
        <mxCell id="T7iJ2CEk3YlCB5aOrDes-61" value="五档快照行情" style="edgeLabel;html=1;align=center;verticalAlign=middle;resizable=0;points=[];" vertex="1" connectable="0" parent="T7iJ2CEk3YlCB5aOrDes-60">
          <mxGeometry x="0.1044" y="-14" relative="1" as="geometry">
            <mxPoint x="-16" y="-31" as="offset" />
          </mxGeometry>
        </mxCell>
        <mxCell id="T7iJ2CEk3YlCB5aOrDes-18" value="" style="ellipse;whiteSpace=wrap;html=1;fontFamily=Verdana;align=left;spacingLeft=36;rounded=0;shadow=0;comic=0;labelBackgroundColor=none;strokeWidth=1;" vertex="1" parent="1">
          <mxGeometry x="341" y="210" width="20" height="20" as="geometry" />
        </mxCell>
        <mxCell id="T7iJ2CEk3YlCB5aOrDes-21" value="快照行情源" style="text;html=1;strokeColor=none;fillColor=none;align=center;verticalAlign=middle;whiteSpace=wrap;rounded=0;" vertex="1" parent="1">
          <mxGeometry x="276" y="205" width="65" height="30" as="geometry" />
        </mxCell>
        <mxCell id="T7iJ2CEk3YlCB5aOrDes-25" value="" style="endArrow=none;html=1;rounded=0;" edge="1" parent="1">
          <mxGeometry width="50" height="50" relative="1" as="geometry">
            <mxPoint x="443" y="124" as="sourcePoint" />
            <mxPoint x="410" y="124" as="targetPoint" />
          </mxGeometry>
        </mxCell>
        <mxCell id="T7iJ2CEk3YlCB5aOrDes-26" value="" style="endArrow=none;html=1;rounded=0;" edge="1" parent="1">
          <mxGeometry width="50" height="50" relative="1" as="geometry">
            <mxPoint x="444" y="157" as="sourcePoint" />
            <mxPoint x="411" y="157" as="targetPoint" />
          </mxGeometry>
        </mxCell>
        <mxCell id="T7iJ2CEk3YlCB5aOrDes-27" value="" style="ellipse;whiteSpace=wrap;html=1;fontFamily=Verdana;align=left;spacingLeft=36;rounded=0;shadow=0;comic=0;labelBackgroundColor=none;strokeWidth=1;" vertex="1" parent="1">
          <mxGeometry x="440" y="115" width="20" height="20" as="geometry" />
        </mxCell>
        <mxCell id="T7iJ2CEk3YlCB5aOrDes-29" value="" style="ellipse;whiteSpace=wrap;html=1;fontFamily=Verdana;align=left;spacingLeft=36;rounded=0;shadow=0;comic=0;labelBackgroundColor=none;strokeWidth=1;" vertex="1" parent="1">
          <mxGeometry x="440" y="145" width="20" height="20" as="geometry" />
        </mxCell>
        <mxCell id="T7iJ2CEk3YlCB5aOrDes-32" value="逐笔成交&lt;br&gt;逐笔委托" style="text;html=1;strokeColor=none;fillColor=none;align=center;verticalAlign=middle;whiteSpace=wrap;rounded=0;" vertex="1" parent="1">
          <mxGeometry x="518" y="158.75" width="65" height="30" as="geometry" />
        </mxCell>
        <mxCell id="T7iJ2CEk3YlCB5aOrDes-35" style="edgeStyle=none;rounded=0;html=1;dashed=1;labelBackgroundColor=none;startArrow=none;startFill=0;endArrow=open;endFill=0;fontFamily=Verdana;fontSize=12;exitX=1;exitY=0.5;exitDx=0;exitDy=0;entryX=0;entryY=0.7;entryDx=0;entryDy=0;fillColor=#008a00;strokeColor=#005700;strokeWidth=4;" edge="1" parent="1" source="T7iJ2CEk3YlCB5aOrDes-29" target="39150e848f15840c-7">
          <mxGeometry relative="1" as="geometry">
            <mxPoint x="467" y="172" as="sourcePoint" />
            <mxPoint x="640" y="208" as="targetPoint" />
          </mxGeometry>
        </mxCell>
        <mxCell id="T7iJ2CEk3YlCB5aOrDes-38" style="edgeStyle=none;rounded=0;html=1;dashed=1;labelBackgroundColor=none;startArrow=none;startFill=0;endArrow=open;endFill=0;fontFamily=Verdana;fontSize=12;exitX=1;exitY=0.5;exitDx=0;exitDy=0;fillColor=#008a00;strokeColor=#005700;strokeWidth=4;entryX=0.5;entryY=1;entryDx=0;entryDy=0;entryPerimeter=0;" edge="1" parent="1" target="T7iJ2CEk3YlCB5aOrDes-204">
          <mxGeometry relative="1" as="geometry">
            <mxPoint x="449" y="115" as="sourcePoint" />
            <mxPoint x="449" y="10.5" as="targetPoint" />
          </mxGeometry>
        </mxCell>
        <mxCell id="T7iJ2CEk3YlCB5aOrDes-46" style="edgeStyle=orthogonalEdgeStyle;rounded=0;orthogonalLoop=1;jettySize=auto;html=1;entryX=0.5;entryY=1;entryDx=0;entryDy=0;" edge="1" parent="1" source="T7iJ2CEk3YlCB5aOrDes-39" target="T7iJ2CEk3YlCB5aOrDes-42">
          <mxGeometry relative="1" as="geometry" />
        </mxCell>
        <mxCell id="T7iJ2CEk3YlCB5aOrDes-113" style="edgeStyle=orthogonalEdgeStyle;rounded=0;orthogonalLoop=1;jettySize=auto;html=1;entryX=1;entryY=0.5;entryDx=0;entryDy=0;strokeWidth=6;fillColor=#008a00;strokeColor=#005700;" edge="1" parent="1" source="T7iJ2CEk3YlCB5aOrDes-39" target="T7iJ2CEk3YlCB5aOrDes-4">
          <mxGeometry relative="1" as="geometry" />
        </mxCell>
        <mxCell id="T7iJ2CEk3YlCB5aOrDes-114" style="edgeStyle=orthogonalEdgeStyle;rounded=0;orthogonalLoop=1;jettySize=auto;html=1;entryX=0.75;entryY=1;entryDx=0;entryDy=0;fillColor=#008a00;strokeColor=#005700;strokeWidth=6;" edge="1" parent="1" source="T7iJ2CEk3YlCB5aOrDes-39" target="39150e848f15840c-10">
          <mxGeometry relative="1" as="geometry">
            <Array as="points">
              <mxPoint x="610" y="247" />
              <mxPoint x="610" y="590" />
              <mxPoint x="360" y="590" />
            </Array>
          </mxGeometry>
        </mxCell>
        <mxCell id="T7iJ2CEk3YlCB5aOrDes-39" value="撮合引擎" style="shape=component;align=left;spacingLeft=36;rounded=0;shadow=0;comic=0;labelBackgroundColor=none;strokeWidth=1;fontFamily=Verdana;fontSize=12;html=1;fillColor=#f8cecc;strokeColor=#b85450;" vertex="1" parent="1">
          <mxGeometry x="650" y="215" width="110" height="65" as="geometry" />
        </mxCell>
        <mxCell id="T7iJ2CEk3YlCB5aOrDes-42" value="撮合监控" style="shape=component;align=left;spacingLeft=36;rounded=0;shadow=0;comic=0;labelBackgroundColor=none;strokeWidth=1;fontFamily=Verdana;fontSize=12;html=1;fillColor=#f8cecc;strokeColor=#b85450;" vertex="1" parent="1">
          <mxGeometry x="840" y="105" width="110" height="65" as="geometry" />
        </mxCell>
        <mxCell id="T7iJ2CEk3YlCB5aOrDes-44" value="实时成交" style="text;html=1;strokeColor=none;fillColor=none;align=center;verticalAlign=middle;whiteSpace=wrap;rounded=0;" vertex="1" parent="1">
          <mxGeometry x="762.5" y="105" width="65" height="30" as="geometry" />
        </mxCell>
        <mxCell id="T7iJ2CEk3YlCB5aOrDes-45" value="委托/撤单" style="text;html=1;strokeColor=none;fillColor=none;align=center;verticalAlign=middle;whiteSpace=wrap;rounded=0;" vertex="1" parent="1">
          <mxGeometry x="640" y="180" width="65" height="30" as="geometry" />
        </mxCell>
        <mxCell id="T7iJ2CEk3YlCB5aOrDes-47" value="撮合成交" style="text;html=1;strokeColor=none;fillColor=none;align=center;verticalAlign=middle;whiteSpace=wrap;rounded=0;" vertex="1" parent="1">
          <mxGeometry x="800" y="215" width="65" height="30" as="geometry" />
        </mxCell>
        <mxCell id="T7iJ2CEk3YlCB5aOrDes-49" value="&lt;h2&gt;实时千档盘口&lt;/h2&gt;" style="text;html=1;strokeColor=none;fillColor=none;align=center;verticalAlign=middle;whiteSpace=wrap;rounded=0;" vertex="1" parent="1">
          <mxGeometry x="635" y="360" width="125" height="30" as="geometry" />
        </mxCell>
        <mxCell id="T7iJ2CEk3YlCB5aOrDes-62" value="&lt;h1&gt;盘中使用场景&lt;/h1&gt;" style="text;html=1;align=center;verticalAlign=middle;resizable=0;points=[];autosize=1;strokeColor=none;fillColor=none;" vertex="1" parent="1">
          <mxGeometry x="30" y="-80" width="170" height="70" as="geometry" />
        </mxCell>
        <mxCell id="T7iJ2CEk3YlCB5aOrDes-63" value="交易所接口" style="verticalAlign=top;align=left;spacingTop=8;spacingLeft=2;spacingRight=12;shape=cube;size=10;direction=south;fontStyle=4;html=1;rounded=0;shadow=0;comic=0;labelBackgroundColor=none;strokeWidth=1;fontFamily=Verdana;fontSize=12;fillColor=#dae8fc;strokeColor=#6c8ebf;" vertex="1" parent="1">
          <mxGeometry x="-1000" y="215" width="390" height="170" as="geometry" />
        </mxCell>
        <mxCell id="T7iJ2CEk3YlCB5aOrDes-64" value="Match-Engine&lt;br&gt;" style="verticalAlign=top;align=left;spacingTop=8;spacingLeft=2;spacingRight=12;shape=cube;size=10;direction=south;fontStyle=4;html=1;rounded=0;shadow=0;comic=0;labelBackgroundColor=none;strokeWidth=1;fontFamily=Verdana;fontSize=12;fillColor=#d5e8d4;strokeColor=#82b366;" vertex="1" parent="1">
          <mxGeometry x="-505" y="195" width="360" height="247.5" as="geometry" />
        </mxCell>
        <mxCell id="T7iJ2CEk3YlCB5aOrDes-65" value="OMS" style="verticalAlign=top;align=left;spacingTop=8;spacingLeft=2;spacingRight=12;shape=cube;size=10;direction=south;fontStyle=4;html=1;rounded=0;shadow=0;comic=0;labelBackgroundColor=none;strokeWidth=1;fontFamily=Verdana;fontSize=12;fillColor=#f8cecc;strokeColor=#b85450;" vertex="1" parent="1">
          <mxGeometry x="-920" y="570" width="520" height="300" as="geometry" />
        </mxCell>
        <mxCell id="T7iJ2CEk3YlCB5aOrDes-66" value="行情" style="shape=component;align=left;spacingLeft=36;rounded=0;shadow=0;comic=0;labelBackgroundColor=none;strokeWidth=1;fontFamily=Verdana;fontSize=12;html=1;" vertex="1" parent="1">
          <mxGeometry x="-980" y="255" width="120" height="60" as="geometry" />
        </mxCell>
        <mxCell id="T7iJ2CEk3YlCB5aOrDes-67" value="" style="ellipse;whiteSpace=wrap;html=1;rounded=0;shadow=0;comic=0;labelBackgroundColor=none;strokeWidth=1;fontFamily=Verdana;fontSize=12;align=center;" vertex="1" parent="1">
          <mxGeometry x="-940" y="340" width="20" height="20" as="geometry" />
        </mxCell>
        <mxCell id="T7iJ2CEk3YlCB5aOrDes-68" value="" style="edgeStyle=orthogonalEdgeStyle;rounded=0;orthogonalLoop=1;jettySize=auto;html=1;dashed=1;dashPattern=12 12;" edge="1" parent="1" source="T7iJ2CEk3YlCB5aOrDes-70" target="T7iJ2CEk3YlCB5aOrDes-94">
          <mxGeometry relative="1" as="geometry" />
        </mxCell>
        <mxCell id="T7iJ2CEk3YlCB5aOrDes-70" value="订单流生成" style="shape=component;align=left;spacingLeft=36;rounded=0;shadow=0;comic=0;labelBackgroundColor=none;strokeWidth=1;fontFamily=Verdana;fontSize=12;html=1;" vertex="1" parent="1">
          <mxGeometry x="-470" y="250" width="110" height="65" as="geometry" />
        </mxCell>
        <mxCell id="T7iJ2CEk3YlCB5aOrDes-71" value="订单管理服务" style="shape=component;align=left;spacingLeft=36;rounded=0;shadow=0;comic=0;labelBackgroundColor=none;strokeWidth=1;fontFamily=Verdana;fontSize=12;html=1;fillColor=#fff2cc;strokeColor=#d6b656;" vertex="1" parent="1">
          <mxGeometry x="-850" y="625" width="120" height="60" as="geometry" />
        </mxCell>
        <mxCell id="T7iJ2CEk3YlCB5aOrDes-72" style="edgeStyle=none;rounded=0;html=1;dashed=1;labelBackgroundColor=none;startArrow=none;startFill=0;startSize=8;endArrow=open;endFill=0;endSize=16;fontFamily=Verdana;fontSize=12;entryX=0.5;entryY=1;entryDx=0;entryDy=0;" edge="1" parent="1" source="T7iJ2CEk3YlCB5aOrDes-71" target="T7iJ2CEk3YlCB5aOrDes-82">
          <mxGeometry relative="1" as="geometry" />
        </mxCell>
        <mxCell id="T7iJ2CEk3YlCB5aOrDes-73" style="edgeStyle=elbowEdgeStyle;rounded=0;html=1;labelBackgroundColor=none;startArrow=none;startFill=0;startSize=8;endArrow=none;endFill=0;endSize=16;fontFamily=Verdana;fontSize=12;" edge="1" parent="1" source="T7iJ2CEk3YlCB5aOrDes-67" target="T7iJ2CEk3YlCB5aOrDes-66">
          <mxGeometry relative="1" as="geometry" />
        </mxCell>
        <mxCell id="T7iJ2CEk3YlCB5aOrDes-74" value="" style="edgeStyle=orthogonalEdgeStyle;rounded=0;orthogonalLoop=1;jettySize=auto;html=1;" edge="1" parent="1">
          <mxGeometry relative="1" as="geometry">
            <mxPoint x="-770" y="315" as="sourcePoint" />
            <mxPoint x="-770" y="355" as="targetPoint" />
          </mxGeometry>
        </mxCell>
        <mxCell id="T7iJ2CEk3YlCB5aOrDes-75" value="报盘" style="shape=component;align=left;spacingLeft=36;rounded=0;shadow=0;comic=0;labelBackgroundColor=none;strokeWidth=1;fontFamily=Verdana;fontSize=12;html=1;" vertex="1" parent="1">
          <mxGeometry x="-829" y="255" width="120" height="60" as="geometry" />
        </mxCell>
        <mxCell id="T7iJ2CEk3YlCB5aOrDes-76" value="综合业务服务" style="shape=component;align=left;spacingLeft=36;rounded=0;shadow=0;comic=0;labelBackgroundColor=none;strokeWidth=1;fontFamily=Verdana;fontSize=12;html=1;" vertex="1" parent="1">
          <mxGeometry x="-860" y="755" width="120" height="60" as="geometry" />
        </mxCell>
        <mxCell id="T7iJ2CEk3YlCB5aOrDes-77" value="算法交易服务" style="shape=component;align=left;spacingLeft=36;rounded=0;shadow=0;comic=0;labelBackgroundColor=none;strokeWidth=1;fontFamily=Verdana;fontSize=12;html=1;fillColor=#fff2cc;strokeColor=#d6b656;" vertex="1" parent="1">
          <mxGeometry x="-670" y="625" width="120" height="60" as="geometry" />
        </mxCell>
        <mxCell id="T7iJ2CEk3YlCB5aOrDes-78" value="场内SBL" style="shape=component;align=left;spacingLeft=36;rounded=0;shadow=0;comic=0;labelBackgroundColor=none;strokeWidth=1;fontFamily=Verdana;fontSize=12;html=1;" vertex="1" parent="1">
          <mxGeometry x="-670" y="755" width="120" height="60" as="geometry" />
        </mxCell>
        <mxCell id="T7iJ2CEk3YlCB5aOrDes-79" style="edgeStyle=none;rounded=0;html=1;dashed=1;labelBackgroundColor=none;startArrow=none;startFill=0;startSize=8;endArrow=open;endFill=0;endSize=16;fontFamily=Verdana;fontSize=12;entryX=1;entryY=1;entryDx=0;entryDy=0;" edge="1" parent="1" source="T7iJ2CEk3YlCB5aOrDes-77" target="T7iJ2CEk3YlCB5aOrDes-82">
          <mxGeometry relative="1" as="geometry">
            <mxPoint x="-739" y="606" as="sourcePoint" />
            <mxPoint x="-850" y="385" as="targetPoint" />
          </mxGeometry>
        </mxCell>
        <mxCell id="T7iJ2CEk3YlCB5aOrDes-82" value="" style="ellipse;whiteSpace=wrap;html=1;fontFamily=Verdana;align=left;spacingLeft=36;rounded=0;shadow=0;comic=0;labelBackgroundColor=none;strokeWidth=1;" vertex="1" parent="1">
          <mxGeometry x="-779" y="355" width="20" height="20" as="geometry" />
        </mxCell>
        <mxCell id="T7iJ2CEk3YlCB5aOrDes-83" value="快照行情源" style="text;html=1;strokeColor=none;fillColor=none;align=center;verticalAlign=middle;whiteSpace=wrap;rounded=0;" vertex="1" parent="1">
          <mxGeometry x="-925" y="340" width="65" height="30" as="geometry" />
        </mxCell>
        <mxCell id="T7iJ2CEk3YlCB5aOrDes-84" value="" style="endArrow=none;html=1;rounded=0;" edge="1" parent="1">
          <mxGeometry width="50" height="50" relative="1" as="geometry">
            <mxPoint x="-677" y="269" as="sourcePoint" />
            <mxPoint x="-710" y="269" as="targetPoint" />
          </mxGeometry>
        </mxCell>
        <mxCell id="T7iJ2CEk3YlCB5aOrDes-85" value="" style="endArrow=none;html=1;rounded=0;" edge="1" parent="1">
          <mxGeometry width="50" height="50" relative="1" as="geometry">
            <mxPoint x="-676" y="302" as="sourcePoint" />
            <mxPoint x="-709" y="302" as="targetPoint" />
          </mxGeometry>
        </mxCell>
        <mxCell id="T7iJ2CEk3YlCB5aOrDes-106" style="edgeStyle=orthogonalEdgeStyle;rounded=0;orthogonalLoop=1;jettySize=auto;html=1;entryX=0;entryY=0.3;entryDx=0;entryDy=0;strokeColor=#005700;strokeWidth=4;fillColor=#008a00;" edge="1" parent="1" source="T7iJ2CEk3YlCB5aOrDes-86" target="T7iJ2CEk3YlCB5aOrDes-94">
          <mxGeometry relative="1" as="geometry" />
        </mxCell>
        <mxCell id="T7iJ2CEk3YlCB5aOrDes-86" value="" style="ellipse;whiteSpace=wrap;html=1;fontFamily=Verdana;align=left;spacingLeft=36;rounded=0;shadow=0;comic=0;labelBackgroundColor=none;strokeWidth=1;" vertex="1" parent="1">
          <mxGeometry x="-680" y="260" width="20" height="20" as="geometry" />
        </mxCell>
        <mxCell id="T7iJ2CEk3YlCB5aOrDes-87" value="" style="ellipse;whiteSpace=wrap;html=1;fontFamily=Verdana;align=left;spacingLeft=36;rounded=0;shadow=0;comic=0;labelBackgroundColor=none;strokeWidth=1;" vertex="1" parent="1">
          <mxGeometry x="-680" y="290" width="20" height="20" as="geometry" />
        </mxCell>
        <mxCell id="T7iJ2CEk3YlCB5aOrDes-88" value="委托" style="text;html=1;strokeColor=none;fillColor=none;align=center;verticalAlign=middle;whiteSpace=wrap;rounded=0;" vertex="1" parent="1">
          <mxGeometry x="-702.5" y="230" width="65" height="30" as="geometry" />
        </mxCell>
        <mxCell id="T7iJ2CEk3YlCB5aOrDes-89" value="回报" style="text;html=1;strokeColor=none;fillColor=none;align=center;verticalAlign=middle;whiteSpace=wrap;rounded=0;" vertex="1" parent="1">
          <mxGeometry x="-675" y="295" width="65" height="30" as="geometry" />
        </mxCell>
        <mxCell id="T7iJ2CEk3YlCB5aOrDes-107" style="edgeStyle=orthogonalEdgeStyle;rounded=0;orthogonalLoop=1;jettySize=auto;html=1;entryX=0.5;entryY=1;entryDx=0;entryDy=0;exitX=0;exitY=0.7;exitDx=0;exitDy=0;strokeColor=#005700;strokeWidth=4;fillColor=#008a00;" edge="1" parent="1" source="T7iJ2CEk3YlCB5aOrDes-94" target="T7iJ2CEk3YlCB5aOrDes-87">
          <mxGeometry relative="1" as="geometry" />
        </mxCell>
        <mxCell id="T7iJ2CEk3YlCB5aOrDes-117" style="edgeStyle=orthogonalEdgeStyle;rounded=0;orthogonalLoop=1;jettySize=auto;html=1;entryX=1;entryY=0.5;entryDx=0;entryDy=0;strokeWidth=5;fillColor=#008a00;strokeColor=#005700;" edge="1" parent="1" source="T7iJ2CEk3YlCB5aOrDes-94" target="T7iJ2CEk3YlCB5aOrDes-77">
          <mxGeometry relative="1" as="geometry">
            <Array as="points">
              <mxPoint x="-440" y="655" />
            </Array>
          </mxGeometry>
        </mxCell>
        <mxCell id="T7iJ2CEk3YlCB5aOrDes-118" style="edgeStyle=orthogonalEdgeStyle;rounded=0;orthogonalLoop=1;jettySize=auto;html=1;entryX=0.75;entryY=1;entryDx=0;entryDy=0;fillColor=#008a00;strokeColor=#005700;strokeWidth=4;" edge="1" parent="1" source="T7iJ2CEk3YlCB5aOrDes-94" target="T7iJ2CEk3YlCB5aOrDes-71">
          <mxGeometry relative="1" as="geometry">
            <Array as="points">
              <mxPoint x="-440" y="730" />
              <mxPoint x="-760" y="730" />
            </Array>
          </mxGeometry>
        </mxCell>
        <mxCell id="T7iJ2CEk3YlCB5aOrDes-94" value="撮合引擎" style="shape=component;align=left;spacingLeft=36;rounded=0;shadow=0;comic=0;labelBackgroundColor=none;strokeWidth=1;fontFamily=Verdana;fontSize=12;html=1;fillColor=#f8cecc;strokeColor=#b85450;" vertex="1" parent="1">
          <mxGeometry x="-470" y="360" width="110" height="65" as="geometry" />
        </mxCell>
        <mxCell id="T7iJ2CEk3YlCB5aOrDes-95" value="撮合监控" style="shape=component;align=left;spacingLeft=36;rounded=0;shadow=0;comic=0;labelBackgroundColor=none;strokeWidth=1;fontFamily=Verdana;fontSize=12;html=1;fillColor=#f5f5f5;strokeColor=#666666;fontColor=#333333;" vertex="1" parent="1">
          <mxGeometry x="-280" y="250" width="110" height="65" as="geometry" />
        </mxCell>
        <mxCell id="T7iJ2CEk3YlCB5aOrDes-97" value="委托/撤单" style="text;html=1;strokeColor=none;fillColor=none;align=center;verticalAlign=middle;whiteSpace=wrap;rounded=0;" vertex="1" parent="1">
          <mxGeometry x="-480" y="325" width="65" height="30" as="geometry" />
        </mxCell>
        <mxCell id="T7iJ2CEk3YlCB5aOrDes-101" value="&lt;h1&gt;回测验证场景&lt;/h1&gt;" style="text;html=1;align=center;verticalAlign=middle;resizable=0;points=[];autosize=1;strokeColor=none;fillColor=none;" vertex="1" parent="1">
          <mxGeometry x="-1050" y="135" width="170" height="70" as="geometry" />
        </mxCell>
        <mxCell id="T7iJ2CEk3YlCB5aOrDes-109" value="委托/撤单" style="text;html=1;align=center;verticalAlign=middle;resizable=0;points=[];autosize=1;strokeColor=none;fillColor=none;" vertex="1" parent="1">
          <mxGeometry x="-590" y="232.5" width="70" height="30" as="geometry" />
        </mxCell>
        <mxCell id="T7iJ2CEk3YlCB5aOrDes-111" value="成交回报" style="text;html=1;align=center;verticalAlign=middle;resizable=0;points=[];autosize=1;strokeColor=none;fillColor=none;" vertex="1" parent="1">
          <mxGeometry x="-645" y="420" width="70" height="30" as="geometry" />
        </mxCell>
        <mxCell id="T7iJ2CEk3YlCB5aOrDes-120" value="&lt;h2&gt;实时千档盘口&lt;/h2&gt;" style="text;html=1;strokeColor=none;fillColor=none;align=center;verticalAlign=middle;whiteSpace=wrap;rounded=0;" vertex="1" parent="1">
          <mxGeometry x="-430" y="530" width="125" height="30" as="geometry" />
        </mxCell>
        <mxCell id="T7iJ2CEk3YlCB5aOrDes-122" value="" style="edgeStyle=orthogonalEdgeStyle;rounded=0;orthogonalLoop=1;jettySize=auto;html=1;dashed=1;dashPattern=12 12;" edge="1" parent="1">
          <mxGeometry relative="1" as="geometry">
            <mxPoint x="-360" y="268" as="sourcePoint" />
            <mxPoint x="-280" y="268" as="targetPoint" />
          </mxGeometry>
        </mxCell>
        <mxCell id="T7iJ2CEk3YlCB5aOrDes-123" value="实时成交" style="text;html=1;strokeColor=none;fillColor=none;align=center;verticalAlign=middle;whiteSpace=wrap;rounded=0;" vertex="1" parent="1">
          <mxGeometry x="-357.5" y="232.5" width="65" height="30" as="geometry" />
        </mxCell>
        <mxCell id="T7iJ2CEk3YlCB5aOrDes-124" style="edgeStyle=orthogonalEdgeStyle;rounded=0;orthogonalLoop=1;jettySize=auto;html=1;entryX=0.5;entryY=1;entryDx=0;entryDy=0;dashed=1;dashPattern=12 12;" edge="1" parent="1">
          <mxGeometry relative="1" as="geometry">
            <mxPoint x="-360" y="392" as="sourcePoint" />
            <mxPoint x="-225" y="315" as="targetPoint" />
          </mxGeometry>
        </mxCell>
        <mxCell id="T7iJ2CEk3YlCB5aOrDes-125" value="撮合成交" style="text;html=1;strokeColor=none;fillColor=none;align=center;verticalAlign=middle;whiteSpace=wrap;rounded=0;" vertex="1" parent="1">
          <mxGeometry x="-320" y="360" width="65" height="30" as="geometry" />
        </mxCell>
        <mxCell id="T7iJ2CEk3YlCB5aOrDes-165" value="交易所接口" style="verticalAlign=top;align=left;spacingTop=8;spacingLeft=2;spacingRight=12;shape=cube;size=10;direction=south;fontStyle=4;html=1;rounded=0;shadow=0;comic=0;labelBackgroundColor=none;strokeWidth=1;fontFamily=Verdana;fontSize=12;fillColor=#dae8fc;strokeColor=#6c8ebf;" vertex="1" parent="1">
          <mxGeometry x="-940" y="1160" width="390" height="170" as="geometry" />
        </mxCell>
        <mxCell id="T7iJ2CEk3YlCB5aOrDes-166" value="Match-Engine&lt;br&gt;" style="verticalAlign=top;align=left;spacingTop=8;spacingLeft=2;spacingRight=12;shape=cube;size=10;direction=south;fontStyle=4;html=1;rounded=0;shadow=0;comic=0;labelBackgroundColor=none;strokeWidth=1;fontFamily=Verdana;fontSize=12;fillColor=#d5e8d4;strokeColor=#82b366;" vertex="1" parent="1">
          <mxGeometry x="-445" y="1140" width="360" height="247.5" as="geometry" />
        </mxCell>
        <mxCell id="T7iJ2CEk3YlCB5aOrDes-167" value="OMS" style="verticalAlign=top;align=left;spacingTop=8;spacingLeft=2;spacingRight=12;shape=cube;size=10;direction=south;fontStyle=4;html=1;rounded=0;shadow=0;comic=0;labelBackgroundColor=none;strokeWidth=1;fontFamily=Verdana;fontSize=12;fillColor=#f8cecc;strokeColor=#b85450;" vertex="1" parent="1">
          <mxGeometry x="-860" y="1515" width="520" height="300" as="geometry" />
        </mxCell>
        <mxCell id="T7iJ2CEk3YlCB5aOrDes-168" value="行情" style="shape=component;align=left;spacingLeft=36;rounded=0;shadow=0;comic=0;labelBackgroundColor=none;strokeWidth=1;fontFamily=Verdana;fontSize=12;html=1;" vertex="1" parent="1">
          <mxGeometry x="-920" y="1200" width="120" height="60" as="geometry" />
        </mxCell>
        <mxCell id="T7iJ2CEk3YlCB5aOrDes-169" value="" style="ellipse;whiteSpace=wrap;html=1;rounded=0;shadow=0;comic=0;labelBackgroundColor=none;strokeWidth=1;fontFamily=Verdana;fontSize=12;align=center;" vertex="1" parent="1">
          <mxGeometry x="-880" y="1285" width="20" height="20" as="geometry" />
        </mxCell>
        <mxCell id="T7iJ2CEk3YlCB5aOrDes-170" value="" style="edgeStyle=orthogonalEdgeStyle;rounded=0;orthogonalLoop=1;jettySize=auto;html=1;" edge="1" parent="1" source="T7iJ2CEk3YlCB5aOrDes-171" target="T7iJ2CEk3YlCB5aOrDes-193">
          <mxGeometry relative="1" as="geometry" />
        </mxCell>
        <mxCell id="T7iJ2CEk3YlCB5aOrDes-171" value="订单流生成" style="shape=component;align=left;spacingLeft=36;rounded=0;shadow=0;comic=0;labelBackgroundColor=none;strokeWidth=1;fontFamily=Verdana;fontSize=12;html=1;fillColor=#f8cecc;strokeColor=#b85450;" vertex="1" parent="1">
          <mxGeometry x="-410" y="1195" width="110" height="65" as="geometry" />
        </mxCell>
        <mxCell id="T7iJ2CEk3YlCB5aOrDes-172" value="订单管理服务" style="shape=component;align=left;spacingLeft=36;rounded=0;shadow=0;comic=0;labelBackgroundColor=none;strokeWidth=1;fontFamily=Verdana;fontSize=12;html=1;fillColor=#fff2cc;strokeColor=#d6b656;" vertex="1" parent="1">
          <mxGeometry x="-790" y="1570" width="120" height="60" as="geometry" />
        </mxCell>
        <mxCell id="T7iJ2CEk3YlCB5aOrDes-173" style="edgeStyle=none;rounded=0;html=1;dashed=1;labelBackgroundColor=none;startArrow=none;startFill=0;endArrow=open;endFill=0;fontFamily=Verdana;fontSize=12;entryX=0.5;entryY=1;entryDx=0;entryDy=0;shape=link;fillColor=#008a00;strokeColor=#005700;strokeWidth=4;dashPattern=1 1;" edge="1" parent="1" source="T7iJ2CEk3YlCB5aOrDes-172" target="T7iJ2CEk3YlCB5aOrDes-181">
          <mxGeometry relative="1" as="geometry" />
        </mxCell>
        <mxCell id="T7iJ2CEk3YlCB5aOrDes-174" style="edgeStyle=elbowEdgeStyle;rounded=0;html=1;labelBackgroundColor=none;startArrow=none;startFill=0;startSize=8;endArrow=none;endFill=0;endSize=16;fontFamily=Verdana;fontSize=12;" edge="1" parent="1" source="T7iJ2CEk3YlCB5aOrDes-169" target="T7iJ2CEk3YlCB5aOrDes-168">
          <mxGeometry relative="1" as="geometry" />
        </mxCell>
        <mxCell id="T7iJ2CEk3YlCB5aOrDes-175" value="" style="edgeStyle=orthogonalEdgeStyle;rounded=0;orthogonalLoop=1;jettySize=auto;html=1;" edge="1" parent="1">
          <mxGeometry relative="1" as="geometry">
            <mxPoint x="-710" y="1260" as="sourcePoint" />
            <mxPoint x="-710" y="1300" as="targetPoint" />
          </mxGeometry>
        </mxCell>
        <mxCell id="T7iJ2CEk3YlCB5aOrDes-176" value="报盘" style="shape=component;align=left;spacingLeft=36;rounded=0;shadow=0;comic=0;labelBackgroundColor=none;strokeWidth=1;fontFamily=Verdana;fontSize=12;html=1;" vertex="1" parent="1">
          <mxGeometry x="-769" y="1200" width="120" height="60" as="geometry" />
        </mxCell>
        <mxCell id="T7iJ2CEk3YlCB5aOrDes-177" value="综合业务服务" style="shape=component;align=left;spacingLeft=36;rounded=0;shadow=0;comic=0;labelBackgroundColor=none;strokeWidth=1;fontFamily=Verdana;fontSize=12;html=1;" vertex="1" parent="1">
          <mxGeometry x="-795" y="1700" width="120" height="60" as="geometry" />
        </mxCell>
        <mxCell id="T7iJ2CEk3YlCB5aOrDes-178" value="算法交易服务" style="shape=component;align=left;spacingLeft=36;rounded=0;shadow=0;comic=0;labelBackgroundColor=none;strokeWidth=1;fontFamily=Verdana;fontSize=12;html=1;fillColor=#fff2cc;strokeColor=#d6b656;" vertex="1" parent="1">
          <mxGeometry x="-610" y="1570" width="120" height="60" as="geometry" />
        </mxCell>
        <mxCell id="T7iJ2CEk3YlCB5aOrDes-179" value="场内SBL" style="shape=component;align=left;spacingLeft=36;rounded=0;shadow=0;comic=0;labelBackgroundColor=none;strokeWidth=1;fontFamily=Verdana;fontSize=12;html=1;" vertex="1" parent="1">
          <mxGeometry x="-610" y="1700" width="120" height="60" as="geometry" />
        </mxCell>
        <mxCell id="T7iJ2CEk3YlCB5aOrDes-180" style="edgeStyle=none;rounded=0;html=1;dashed=1;labelBackgroundColor=none;startArrow=none;startFill=0;endArrow=open;endFill=0;fontFamily=Verdana;fontSize=12;entryX=1;entryY=1;entryDx=0;entryDy=0;shape=link;strokeWidth=4;fillColor=#008a00;strokeColor=#005700;dashPattern=1 2;" edge="1" parent="1" source="T7iJ2CEk3YlCB5aOrDes-178" target="T7iJ2CEk3YlCB5aOrDes-181">
          <mxGeometry relative="1" as="geometry">
            <mxPoint x="-679" y="1551" as="sourcePoint" />
            <mxPoint x="-790" y="1330" as="targetPoint" />
          </mxGeometry>
        </mxCell>
        <mxCell id="T7iJ2CEk3YlCB5aOrDes-181" value="" style="ellipse;whiteSpace=wrap;html=1;fontFamily=Verdana;align=left;spacingLeft=36;rounded=0;shadow=0;comic=0;labelBackgroundColor=none;strokeWidth=1;" vertex="1" parent="1">
          <mxGeometry x="-719" y="1300" width="20" height="20" as="geometry" />
        </mxCell>
        <mxCell id="T7iJ2CEk3YlCB5aOrDes-182" value="快照行情源" style="text;html=1;strokeColor=none;fillColor=none;align=center;verticalAlign=middle;whiteSpace=wrap;rounded=0;" vertex="1" parent="1">
          <mxGeometry x="-855" y="1285" width="65" height="30" as="geometry" />
        </mxCell>
        <mxCell id="T7iJ2CEk3YlCB5aOrDes-183" value="" style="endArrow=none;html=1;rounded=0;" edge="1" parent="1">
          <mxGeometry width="50" height="50" relative="1" as="geometry">
            <mxPoint x="-617" y="1214" as="sourcePoint" />
            <mxPoint x="-650" y="1214" as="targetPoint" />
          </mxGeometry>
        </mxCell>
        <mxCell id="T7iJ2CEk3YlCB5aOrDes-184" value="" style="endArrow=none;html=1;rounded=0;" edge="1" parent="1">
          <mxGeometry width="50" height="50" relative="1" as="geometry">
            <mxPoint x="-616" y="1247" as="sourcePoint" />
            <mxPoint x="-649" y="1247" as="targetPoint" />
          </mxGeometry>
        </mxCell>
        <mxCell id="T7iJ2CEk3YlCB5aOrDes-185" style="edgeStyle=orthogonalEdgeStyle;rounded=0;orthogonalLoop=1;jettySize=auto;html=1;entryX=0;entryY=0.3;entryDx=0;entryDy=0;strokeColor=#005700;strokeWidth=4;fillColor=#008a00;" edge="1" parent="1" source="T7iJ2CEk3YlCB5aOrDes-186" target="T7iJ2CEk3YlCB5aOrDes-193">
          <mxGeometry relative="1" as="geometry" />
        </mxCell>
        <mxCell id="T7iJ2CEk3YlCB5aOrDes-186" value="" style="ellipse;whiteSpace=wrap;html=1;fontFamily=Verdana;align=left;spacingLeft=36;rounded=0;shadow=0;comic=0;labelBackgroundColor=none;strokeWidth=1;" vertex="1" parent="1">
          <mxGeometry x="-620" y="1205" width="20" height="20" as="geometry" />
        </mxCell>
        <mxCell id="T7iJ2CEk3YlCB5aOrDes-187" value="" style="ellipse;whiteSpace=wrap;html=1;fontFamily=Verdana;align=left;spacingLeft=36;rounded=0;shadow=0;comic=0;labelBackgroundColor=none;strokeWidth=1;" vertex="1" parent="1">
          <mxGeometry x="-620" y="1235" width="20" height="20" as="geometry" />
        </mxCell>
        <mxCell id="T7iJ2CEk3YlCB5aOrDes-188" value="委托" style="text;html=1;strokeColor=none;fillColor=none;align=center;verticalAlign=middle;whiteSpace=wrap;rounded=0;" vertex="1" parent="1">
          <mxGeometry x="-642.5" y="1175" width="65" height="30" as="geometry" />
        </mxCell>
        <mxCell id="T7iJ2CEk3YlCB5aOrDes-189" value="回报" style="text;html=1;strokeColor=none;fillColor=none;align=center;verticalAlign=middle;whiteSpace=wrap;rounded=0;" vertex="1" parent="1">
          <mxGeometry x="-615" y="1240" width="65" height="30" as="geometry" />
        </mxCell>
        <mxCell id="T7iJ2CEk3YlCB5aOrDes-190" style="edgeStyle=orthogonalEdgeStyle;rounded=0;orthogonalLoop=1;jettySize=auto;html=1;entryX=0.5;entryY=1;entryDx=0;entryDy=0;exitX=0;exitY=0.7;exitDx=0;exitDy=0;strokeColor=#005700;strokeWidth=4;fillColor=#008a00;" edge="1" parent="1" source="T7iJ2CEk3YlCB5aOrDes-193" target="T7iJ2CEk3YlCB5aOrDes-187">
          <mxGeometry relative="1" as="geometry" />
        </mxCell>
        <mxCell id="T7iJ2CEk3YlCB5aOrDes-191" style="edgeStyle=orthogonalEdgeStyle;rounded=0;orthogonalLoop=1;jettySize=auto;html=1;entryX=1;entryY=0.5;entryDx=0;entryDy=0;strokeWidth=5;fillColor=#008a00;strokeColor=#005700;" edge="1" parent="1" source="T7iJ2CEk3YlCB5aOrDes-193" target="T7iJ2CEk3YlCB5aOrDes-178">
          <mxGeometry relative="1" as="geometry">
            <Array as="points">
              <mxPoint x="-380" y="1600" />
            </Array>
          </mxGeometry>
        </mxCell>
        <mxCell id="T7iJ2CEk3YlCB5aOrDes-192" style="edgeStyle=orthogonalEdgeStyle;rounded=0;orthogonalLoop=1;jettySize=auto;html=1;entryX=0.75;entryY=1;entryDx=0;entryDy=0;fillColor=#008a00;strokeColor=#005700;strokeWidth=4;" edge="1" parent="1" source="T7iJ2CEk3YlCB5aOrDes-193" target="T7iJ2CEk3YlCB5aOrDes-172">
          <mxGeometry relative="1" as="geometry">
            <Array as="points">
              <mxPoint x="-380" y="1675" />
              <mxPoint x="-700" y="1675" />
            </Array>
          </mxGeometry>
        </mxCell>
        <mxCell id="T7iJ2CEk3YlCB5aOrDes-193" value="撮合引擎" style="shape=component;align=left;spacingLeft=36;rounded=0;shadow=0;comic=0;labelBackgroundColor=none;strokeWidth=1;fontFamily=Verdana;fontSize=12;html=1;fillColor=#f8cecc;strokeColor=#b85450;" vertex="1" parent="1">
          <mxGeometry x="-410" y="1305" width="110" height="65" as="geometry" />
        </mxCell>
        <mxCell id="T7iJ2CEk3YlCB5aOrDes-194" value="撮合监控" style="shape=component;align=left;spacingLeft=36;rounded=0;shadow=0;comic=0;labelBackgroundColor=none;strokeWidth=1;fontFamily=Verdana;fontSize=12;html=1;fillColor=#f5f5f5;strokeColor=#666666;fontColor=#333333;" vertex="1" parent="1">
          <mxGeometry x="-220" y="1195" width="110" height="65" as="geometry" />
        </mxCell>
        <mxCell id="T7iJ2CEk3YlCB5aOrDes-195" value="委托/撤单" style="text;html=1;strokeColor=none;fillColor=none;align=center;verticalAlign=middle;whiteSpace=wrap;rounded=0;" vertex="1" parent="1">
          <mxGeometry x="-435" y="1270" width="65" height="30" as="geometry" />
        </mxCell>
        <mxCell id="T7iJ2CEk3YlCB5aOrDes-196" value="&lt;h1&gt;&lt;font style=&quot;font-size: 26px;&quot;&gt;回测验证场景&lt;/font&gt;&lt;/h1&gt;" style="text;html=1;align=center;verticalAlign=middle;resizable=0;points=[];autosize=1;strokeColor=none;fillColor=none;strokeWidth=7;" vertex="1" parent="1">
          <mxGeometry x="-1035" y="1015" width="180" height="80" as="geometry" />
        </mxCell>
        <mxCell id="T7iJ2CEk3YlCB5aOrDes-197" value="委托/撤单" style="text;html=1;align=center;verticalAlign=middle;resizable=0;points=[];autosize=1;strokeColor=none;fillColor=none;" vertex="1" parent="1">
          <mxGeometry x="-530" y="1177.5" width="70" height="30" as="geometry" />
        </mxCell>
        <mxCell id="T7iJ2CEk3YlCB5aOrDes-198" value="&lt;p&gt;&lt;font size=&quot;1&quot; style=&quot;&quot;&gt;&lt;b style=&quot;font-size: 17px;&quot;&gt;真实的成交回报&lt;/b&gt;&lt;/font&gt;&lt;/p&gt;" style="text;html=1;align=center;verticalAlign=middle;resizable=0;points=[];autosize=1;strokeColor=#BD7000;fillColor=#f0a30a;fontColor=#000000;" vertex="1" parent="1">
          <mxGeometry x="-590" y="1360" width="140" height="60" as="geometry" />
        </mxCell>
        <mxCell id="T7iJ2CEk3YlCB5aOrDes-199" value="&lt;h2&gt;&lt;font style=&quot;font-size: 19px;&quot;&gt;实时盘口会因委托变化&lt;/font&gt;&lt;/h2&gt;" style="text;html=1;strokeColor=#BD7000;fillColor=#f0a30a;align=center;verticalAlign=middle;whiteSpace=wrap;rounded=0;fontColor=#000000;" vertex="1" parent="1">
          <mxGeometry x="-370" y="1460" width="200" height="30" as="geometry" />
        </mxCell>
        <mxCell id="T7iJ2CEk3YlCB5aOrDes-200" value="" style="edgeStyle=orthogonalEdgeStyle;rounded=0;orthogonalLoop=1;jettySize=auto;html=1;dashed=1;dashPattern=8 8;" edge="1" parent="1">
          <mxGeometry relative="1" as="geometry">
            <mxPoint x="-300" y="1213" as="sourcePoint" />
            <mxPoint x="-220" y="1213" as="targetPoint" />
          </mxGeometry>
        </mxCell>
        <mxCell id="T7iJ2CEk3YlCB5aOrDes-201" value="实时成交" style="text;html=1;strokeColor=none;fillColor=none;align=center;verticalAlign=middle;whiteSpace=wrap;rounded=0;" vertex="1" parent="1">
          <mxGeometry x="-297.5" y="1177.5" width="65" height="30" as="geometry" />
        </mxCell>
        <mxCell id="T7iJ2CEk3YlCB5aOrDes-202" style="edgeStyle=orthogonalEdgeStyle;rounded=0;orthogonalLoop=1;jettySize=auto;html=1;entryX=0.5;entryY=1;entryDx=0;entryDy=0;dashed=1;dashPattern=12 12;" edge="1" parent="1">
          <mxGeometry relative="1" as="geometry">
            <mxPoint x="-300" y="1337" as="sourcePoint" />
            <mxPoint x="-165" y="1260" as="targetPoint" />
          </mxGeometry>
        </mxCell>
        <mxCell id="T7iJ2CEk3YlCB5aOrDes-203" value="撮合成交" style="text;html=1;strokeColor=none;fillColor=none;align=center;verticalAlign=middle;whiteSpace=wrap;rounded=0;" vertex="1" parent="1">
          <mxGeometry x="-260" y="1305" width="65" height="30" as="geometry" />
        </mxCell>
        <mxCell id="T7iJ2CEk3YlCB5aOrDes-204" value="逐笔行情库" style="shape=cylinder3;whiteSpace=wrap;html=1;boundedLbl=1;backgroundOutline=1;size=15;fillColor=#b0e3e6;strokeColor=#0e8088;" vertex="1" parent="1">
          <mxGeometry x="370" y="-100" width="160" height="90" as="geometry" />
        </mxCell>
        <mxCell id="T7iJ2CEk3YlCB5aOrDes-205" value="&lt;font style=&quot;font-size: 14px;&quot;&gt;逐笔行情落库&lt;/font&gt;" style="text;html=1;align=center;verticalAlign=middle;resizable=0;points=[];autosize=1;strokeColor=none;fillColor=none;" vertex="1" parent="1">
          <mxGeometry x="440" y="30" width="110" height="30" as="geometry" />
        </mxCell>
        <mxCell id="T7iJ2CEk3YlCB5aOrDes-206" value="交易所接口" style="verticalAlign=top;align=left;spacingTop=8;spacingLeft=2;spacingRight=12;shape=cube;size=10;direction=south;fontStyle=4;html=1;rounded=0;shadow=0;comic=0;labelBackgroundColor=none;strokeWidth=1;fontFamily=Verdana;fontSize=12;fillColor=#dae8fc;strokeColor=#6c8ebf;" vertex="1" parent="1">
          <mxGeometry x="200" y="1180" width="390" height="170" as="geometry" />
        </mxCell>
        <mxCell id="T7iJ2CEk3YlCB5aOrDes-207" value="Match-Engine&lt;br&gt;" style="verticalAlign=top;align=left;spacingTop=8;spacingLeft=2;spacingRight=12;shape=cube;size=10;direction=south;fontStyle=4;html=1;rounded=0;shadow=0;comic=0;labelBackgroundColor=none;strokeWidth=1;fontFamily=Verdana;fontSize=12;fillColor=#d5e8d4;strokeColor=#82b366;" vertex="1" parent="1">
          <mxGeometry x="695" y="1160" width="360" height="247.5" as="geometry" />
        </mxCell>
        <mxCell id="T7iJ2CEk3YlCB5aOrDes-208" value="OMS" style="verticalAlign=top;align=left;spacingTop=8;spacingLeft=2;spacingRight=12;shape=cube;size=10;direction=south;fontStyle=4;html=1;rounded=0;shadow=0;comic=0;labelBackgroundColor=none;strokeWidth=1;fontFamily=Verdana;fontSize=12;fillColor=#f8cecc;strokeColor=#b85450;" vertex="1" parent="1">
          <mxGeometry x="280" y="1535" width="520" height="300" as="geometry" />
        </mxCell>
        <mxCell id="T7iJ2CEk3YlCB5aOrDes-209" value="报盘" style="shape=component;align=left;spacingLeft=36;rounded=0;shadow=0;comic=0;labelBackgroundColor=none;strokeWidth=1;fontFamily=Verdana;fontSize=12;html=1;" vertex="1" parent="1">
          <mxGeometry x="220" y="1220" width="120" height="60" as="geometry" />
        </mxCell>
        <mxCell id="T7iJ2CEk3YlCB5aOrDes-210" value="" style="ellipse;whiteSpace=wrap;html=1;rounded=0;shadow=0;comic=0;labelBackgroundColor=none;strokeWidth=1;fontFamily=Verdana;fontSize=12;align=center;" vertex="1" parent="1">
          <mxGeometry x="260" y="1305" width="20" height="20" as="geometry" />
        </mxCell>
        <mxCell id="T7iJ2CEk3YlCB5aOrDes-211" value="" style="edgeStyle=orthogonalEdgeStyle;rounded=0;orthogonalLoop=1;jettySize=auto;html=1;" edge="1" parent="1" source="T7iJ2CEk3YlCB5aOrDes-213" target="T7iJ2CEk3YlCB5aOrDes-237">
          <mxGeometry relative="1" as="geometry" />
        </mxCell>
        <mxCell id="T7iJ2CEk3YlCB5aOrDes-212" value="" style="edgeStyle=orthogonalEdgeStyle;rounded=0;orthogonalLoop=1;jettySize=auto;html=1;" edge="1" parent="1" source="T7iJ2CEk3YlCB5aOrDes-213" target="T7iJ2CEk3YlCB5aOrDes-238">
          <mxGeometry relative="1" as="geometry" />
        </mxCell>
        <mxCell id="T7iJ2CEk3YlCB5aOrDes-213" value="订单流生成" style="shape=component;align=left;spacingLeft=36;rounded=0;shadow=0;comic=0;labelBackgroundColor=none;strokeWidth=1;fontFamily=Verdana;fontSize=12;html=1;fillColor=#f8cecc;strokeColor=#b85450;" vertex="1" parent="1">
          <mxGeometry x="730" y="1215" width="110" height="65" as="geometry" />
        </mxCell>
        <mxCell id="T7iJ2CEk3YlCB5aOrDes-214" value="订单管理服务" style="shape=component;align=left;spacingLeft=36;rounded=0;shadow=0;comic=0;labelBackgroundColor=none;strokeWidth=1;fontFamily=Verdana;fontSize=12;html=1;fillColor=#fff2cc;strokeColor=#d6b656;" vertex="1" parent="1">
          <mxGeometry x="350" y="1590" width="120" height="60" as="geometry" />
        </mxCell>
        <mxCell id="T7iJ2CEk3YlCB5aOrDes-215" style="edgeStyle=none;rounded=0;html=1;dashed=1;labelBackgroundColor=none;startArrow=none;startFill=0;startSize=8;endArrow=open;endFill=0;endSize=16;fontFamily=Verdana;fontSize=12;" edge="1" parent="1" source="T7iJ2CEk3YlCB5aOrDes-214" target="T7iJ2CEk3YlCB5aOrDes-210">
          <mxGeometry relative="1" as="geometry" />
        </mxCell>
        <mxCell id="T7iJ2CEk3YlCB5aOrDes-216" style="edgeStyle=elbowEdgeStyle;rounded=0;html=1;labelBackgroundColor=none;startArrow=none;startFill=0;startSize=8;endArrow=none;endFill=0;endSize=16;fontFamily=Verdana;fontSize=12;" edge="1" parent="1" source="T7iJ2CEk3YlCB5aOrDes-210" target="T7iJ2CEk3YlCB5aOrDes-209">
          <mxGeometry relative="1" as="geometry" />
        </mxCell>
        <mxCell id="T7iJ2CEk3YlCB5aOrDes-217" value="" style="edgeStyle=orthogonalEdgeStyle;rounded=0;orthogonalLoop=1;jettySize=auto;html=1;" edge="1" parent="1">
          <mxGeometry relative="1" as="geometry">
            <mxPoint x="430" y="1280" as="sourcePoint" />
            <mxPoint x="430" y="1320" as="targetPoint" />
          </mxGeometry>
        </mxCell>
        <mxCell id="T7iJ2CEk3YlCB5aOrDes-218" value="行情发布" style="shape=component;align=left;spacingLeft=36;rounded=0;shadow=0;comic=0;labelBackgroundColor=none;strokeWidth=1;fontFamily=Verdana;fontSize=12;html=1;" vertex="1" parent="1">
          <mxGeometry x="370" y="1220" width="120" height="60" as="geometry" />
        </mxCell>
        <mxCell id="T7iJ2CEk3YlCB5aOrDes-219" value="综合业务服务" style="shape=component;align=left;spacingLeft=36;rounded=0;shadow=0;comic=0;labelBackgroundColor=none;strokeWidth=1;fontFamily=Verdana;fontSize=12;html=1;" vertex="1" parent="1">
          <mxGeometry x="340" y="1720" width="120" height="60" as="geometry" />
        </mxCell>
        <mxCell id="T7iJ2CEk3YlCB5aOrDes-220" value="算法交易服务" style="shape=component;align=left;spacingLeft=36;rounded=0;shadow=0;comic=0;labelBackgroundColor=none;strokeWidth=1;fontFamily=Verdana;fontSize=12;html=1;fillColor=#fff2cc;strokeColor=#d6b656;" vertex="1" parent="1">
          <mxGeometry x="530" y="1590" width="120" height="60" as="geometry" />
        </mxCell>
        <mxCell id="T7iJ2CEk3YlCB5aOrDes-221" value="场内SBL" style="shape=component;align=left;spacingLeft=36;rounded=0;shadow=0;comic=0;labelBackgroundColor=none;strokeWidth=1;fontFamily=Verdana;fontSize=12;html=1;" vertex="1" parent="1">
          <mxGeometry x="530" y="1720" width="120" height="60" as="geometry" />
        </mxCell>
        <mxCell id="T7iJ2CEk3YlCB5aOrDes-222" style="edgeStyle=none;rounded=0;html=1;dashed=1;labelBackgroundColor=none;startArrow=none;startFill=0;startSize=8;endArrow=open;endFill=0;endSize=16;fontFamily=Verdana;fontSize=12;" edge="1" parent="1" source="T7iJ2CEk3YlCB5aOrDes-220" target="T7iJ2CEk3YlCB5aOrDes-210">
          <mxGeometry relative="1" as="geometry">
            <mxPoint x="461" y="1571" as="sourcePoint" />
            <mxPoint x="350" y="1350" as="targetPoint" />
          </mxGeometry>
        </mxCell>
        <mxCell id="T7iJ2CEk3YlCB5aOrDes-223" style="edgeStyle=orthogonalEdgeStyle;rounded=0;orthogonalLoop=1;jettySize=auto;html=1;entryX=0;entryY=0;entryDx=0;entryDy=255;entryPerimeter=0;shape=arrow;exitX=1;exitY=1;exitDx=0;exitDy=0;" edge="1" parent="1" source="T7iJ2CEk3YlCB5aOrDes-225" target="T7iJ2CEk3YlCB5aOrDes-208">
          <mxGeometry relative="1" as="geometry" />
        </mxCell>
        <mxCell id="T7iJ2CEk3YlCB5aOrDes-224" value="五档快照行情" style="edgeLabel;html=1;align=center;verticalAlign=middle;resizable=0;points=[];" vertex="1" connectable="0" parent="T7iJ2CEk3YlCB5aOrDes-223">
          <mxGeometry x="0.1044" y="-14" relative="1" as="geometry">
            <mxPoint x="-16" y="-31" as="offset" />
          </mxGeometry>
        </mxCell>
        <mxCell id="T7iJ2CEk3YlCB5aOrDes-225" value="" style="ellipse;whiteSpace=wrap;html=1;fontFamily=Verdana;align=left;spacingLeft=36;rounded=0;shadow=0;comic=0;labelBackgroundColor=none;strokeWidth=1;" vertex="1" parent="1">
          <mxGeometry x="421" y="1320" width="20" height="20" as="geometry" />
        </mxCell>
        <mxCell id="T7iJ2CEk3YlCB5aOrDes-226" value="快照行情源" style="text;html=1;strokeColor=none;fillColor=none;align=center;verticalAlign=middle;whiteSpace=wrap;rounded=0;" vertex="1" parent="1">
          <mxGeometry x="356" y="1315" width="65" height="30" as="geometry" />
        </mxCell>
        <mxCell id="T7iJ2CEk3YlCB5aOrDes-227" value="" style="endArrow=none;html=1;rounded=0;" edge="1" parent="1">
          <mxGeometry width="50" height="50" relative="1" as="geometry">
            <mxPoint x="523" y="1234" as="sourcePoint" />
            <mxPoint x="490" y="1234" as="targetPoint" />
          </mxGeometry>
        </mxCell>
        <mxCell id="T7iJ2CEk3YlCB5aOrDes-228" value="" style="endArrow=none;html=1;rounded=0;" edge="1" parent="1">
          <mxGeometry width="50" height="50" relative="1" as="geometry">
            <mxPoint x="524" y="1267" as="sourcePoint" />
            <mxPoint x="491" y="1267" as="targetPoint" />
          </mxGeometry>
        </mxCell>
        <mxCell id="T7iJ2CEk3YlCB5aOrDes-229" value="" style="ellipse;whiteSpace=wrap;html=1;fontFamily=Verdana;align=left;spacingLeft=36;rounded=0;shadow=0;comic=0;labelBackgroundColor=none;strokeWidth=1;" vertex="1" parent="1">
          <mxGeometry x="520" y="1225" width="20" height="20" as="geometry" />
        </mxCell>
        <mxCell id="T7iJ2CEk3YlCB5aOrDes-230" value="" style="ellipse;whiteSpace=wrap;html=1;fontFamily=Verdana;align=left;spacingLeft=36;rounded=0;shadow=0;comic=0;labelBackgroundColor=none;strokeWidth=1;" vertex="1" parent="1">
          <mxGeometry x="520" y="1255" width="20" height="20" as="geometry" />
        </mxCell>
        <mxCell id="T7iJ2CEk3YlCB5aOrDes-231" value="逐笔成交&lt;br&gt;逐笔委托" style="text;html=1;strokeColor=none;fillColor=none;align=center;verticalAlign=middle;whiteSpace=wrap;rounded=0;" vertex="1" parent="1">
          <mxGeometry x="598" y="1268.75" width="65" height="30" as="geometry" />
        </mxCell>
        <mxCell id="T7iJ2CEk3YlCB5aOrDes-232" style="edgeStyle=none;rounded=0;html=1;dashed=1;labelBackgroundColor=none;startArrow=none;startFill=0;endArrow=open;endFill=0;fontFamily=Verdana;fontSize=12;exitX=1;exitY=0.5;exitDx=0;exitDy=0;entryX=0;entryY=0.7;entryDx=0;entryDy=0;fillColor=#008a00;strokeColor=#005700;strokeWidth=4;" edge="1" parent="1" source="T7iJ2CEk3YlCB5aOrDes-230" target="T7iJ2CEk3YlCB5aOrDes-213">
          <mxGeometry relative="1" as="geometry">
            <mxPoint x="547" y="1282" as="sourcePoint" />
            <mxPoint x="720" y="1318" as="targetPoint" />
          </mxGeometry>
        </mxCell>
        <mxCell id="T7iJ2CEk3YlCB5aOrDes-233" style="edgeStyle=none;rounded=0;html=1;dashed=1;labelBackgroundColor=none;startArrow=none;startFill=0;endArrow=open;endFill=0;fontFamily=Verdana;fontSize=12;exitX=1;exitY=0.5;exitDx=0;exitDy=0;fillColor=#008a00;strokeColor=#005700;strokeWidth=4;entryX=0.5;entryY=1;entryDx=0;entryDy=0;entryPerimeter=0;" edge="1" parent="1" target="T7iJ2CEk3YlCB5aOrDes-244">
          <mxGeometry relative="1" as="geometry">
            <mxPoint x="529" y="1225" as="sourcePoint" />
            <mxPoint x="529" y="1120.5" as="targetPoint" />
          </mxGeometry>
        </mxCell>
        <mxCell id="T7iJ2CEk3YlCB5aOrDes-234" style="edgeStyle=orthogonalEdgeStyle;rounded=0;orthogonalLoop=1;jettySize=auto;html=1;entryX=0.5;entryY=1;entryDx=0;entryDy=0;" edge="1" parent="1" source="T7iJ2CEk3YlCB5aOrDes-237" target="T7iJ2CEk3YlCB5aOrDes-238">
          <mxGeometry relative="1" as="geometry" />
        </mxCell>
        <mxCell id="T7iJ2CEk3YlCB5aOrDes-235" style="edgeStyle=orthogonalEdgeStyle;rounded=0;orthogonalLoop=1;jettySize=auto;html=1;entryX=1;entryY=0.5;entryDx=0;entryDy=0;strokeWidth=6;fillColor=#008a00;strokeColor=#005700;" edge="1" parent="1" source="T7iJ2CEk3YlCB5aOrDes-237" target="T7iJ2CEk3YlCB5aOrDes-220">
          <mxGeometry relative="1" as="geometry" />
        </mxCell>
        <mxCell id="T7iJ2CEk3YlCB5aOrDes-236" style="edgeStyle=orthogonalEdgeStyle;rounded=0;orthogonalLoop=1;jettySize=auto;html=1;entryX=0.75;entryY=1;entryDx=0;entryDy=0;fillColor=#008a00;strokeColor=#005700;strokeWidth=6;" edge="1" parent="1" source="T7iJ2CEk3YlCB5aOrDes-237" target="T7iJ2CEk3YlCB5aOrDes-214">
          <mxGeometry relative="1" as="geometry">
            <Array as="points">
              <mxPoint x="690" y="1357" />
              <mxPoint x="690" y="1700" />
              <mxPoint x="440" y="1700" />
            </Array>
          </mxGeometry>
        </mxCell>
        <mxCell id="T7iJ2CEk3YlCB5aOrDes-237" value="撮合引擎" style="shape=component;align=left;spacingLeft=36;rounded=0;shadow=0;comic=0;labelBackgroundColor=none;strokeWidth=1;fontFamily=Verdana;fontSize=12;html=1;fillColor=#f8cecc;strokeColor=#b85450;" vertex="1" parent="1">
          <mxGeometry x="730" y="1325" width="110" height="65" as="geometry" />
        </mxCell>
        <mxCell id="T7iJ2CEk3YlCB5aOrDes-238" value="撮合监控" style="shape=component;align=left;spacingLeft=36;rounded=0;shadow=0;comic=0;labelBackgroundColor=none;strokeWidth=1;fontFamily=Verdana;fontSize=12;html=1;fillColor=#f8cecc;strokeColor=#b85450;" vertex="1" parent="1">
          <mxGeometry x="920" y="1215" width="110" height="65" as="geometry" />
        </mxCell>
        <mxCell id="T7iJ2CEk3YlCB5aOrDes-239" value="实时成交" style="text;html=1;strokeColor=none;fillColor=none;align=center;verticalAlign=middle;whiteSpace=wrap;rounded=0;" vertex="1" parent="1">
          <mxGeometry x="842.5" y="1215" width="65" height="30" as="geometry" />
        </mxCell>
        <mxCell id="T7iJ2CEk3YlCB5aOrDes-240" value="委托/撤单" style="text;html=1;strokeColor=none;fillColor=none;align=center;verticalAlign=middle;whiteSpace=wrap;rounded=0;" vertex="1" parent="1">
          <mxGeometry x="720" y="1290" width="65" height="30" as="geometry" />
        </mxCell>
        <mxCell id="T7iJ2CEk3YlCB5aOrDes-241" value="撮合成交" style="text;html=1;strokeColor=none;fillColor=none;align=center;verticalAlign=middle;whiteSpace=wrap;rounded=0;" vertex="1" parent="1">
          <mxGeometry x="880" y="1325" width="65" height="30" as="geometry" />
        </mxCell>
        <mxCell id="T7iJ2CEk3YlCB5aOrDes-242" value="&lt;h2&gt;实时千档盘口&lt;/h2&gt;" style="text;html=1;strokeColor=none;fillColor=none;align=center;verticalAlign=middle;whiteSpace=wrap;rounded=0;" vertex="1" parent="1">
          <mxGeometry x="715" y="1470" width="125" height="30" as="geometry" />
        </mxCell>
        <mxCell id="T7iJ2CEk3YlCB5aOrDes-243" value="&lt;h1&gt;历史回测场景&lt;/h1&gt;" style="text;html=1;align=center;verticalAlign=middle;resizable=0;points=[];autosize=1;strokeColor=none;fillColor=none;" vertex="1" parent="1">
          <mxGeometry x="100" y="1030" width="170" height="70" as="geometry" />
        </mxCell>
        <mxCell id="T7iJ2CEk3YlCB5aOrDes-244" value="逐笔行情库" style="shape=cylinder3;whiteSpace=wrap;html=1;boundedLbl=1;backgroundOutline=1;size=15;" vertex="1" parent="1">
          <mxGeometry x="480" y="1010" width="100" height="90" as="geometry" />
        </mxCell>
        <mxCell id="T7iJ2CEk3YlCB5aOrDes-245" value="&lt;font style=&quot;font-size: 14px;&quot;&gt;逐笔行情落库&lt;/font&gt;" style="text;html=1;align=center;verticalAlign=middle;resizable=0;points=[];autosize=1;strokeColor=none;fillColor=none;" vertex="1" parent="1">
          <mxGeometry x="520" y="1140" width="110" height="30" as="geometry" />
        </mxCell>
        <mxCell id="T7iJ2CEk3YlCB5aOrDes-247" style="edgeStyle=orthogonalEdgeStyle;rounded=0;orthogonalLoop=1;jettySize=auto;html=1;fillColor=#008a00;strokeColor=#005700;strokeWidth=5;" edge="1" parent="1" source="T7iJ2CEk3YlCB5aOrDes-246" target="T7iJ2CEk3YlCB5aOrDes-171">
          <mxGeometry relative="1" as="geometry" />
        </mxCell>
        <mxCell id="T7iJ2CEk3YlCB5aOrDes-246" value="逐笔行情库" style="shape=cylinder3;whiteSpace=wrap;html=1;boundedLbl=1;backgroundOutline=1;size=15;fillColor=#b0e3e6;strokeColor=#0e8088;" vertex="1" parent="1">
          <mxGeometry x="-670" y="980" width="140" height="100" as="geometry" />
        </mxCell>
        <mxCell id="T7iJ2CEk3YlCB5aOrDes-248" value="&lt;font style=&quot;font-size: 16px;&quot;&gt;逐笔委托/逐笔成交&lt;/font&gt;" style="text;html=1;align=center;verticalAlign=middle;resizable=0;points=[];autosize=1;strokeColor=none;fillColor=none;" vertex="1" parent="1">
          <mxGeometry x="-505" y="1000" width="160" height="30" as="geometry" />
        </mxCell>
        <mxCell id="T7iJ2CEk3YlCB5aOrDes-249" value="委托、回报" style="text;html=1;align=center;verticalAlign=middle;resizable=0;points=[];autosize=1;strokeColor=none;fillColor=none;" vertex="1" parent="1">
          <mxGeometry x="-717.5" y="1430" width="80" height="30" as="geometry" />
        </mxCell>
      </root>
    </mxGraphModel>
  </diagram>
</mxfile>
